<svg xmlns="http://www.w3.org/2000/svg" width="343.73" height="35" viewBox="0 0 343.73 35"><rect class="svg__rect" x="0" y="0" width="148.91" height="35" fill="#31C4F3"/><rect class="svg__rect" x="146.91" y="0" width="196.82" height="35" fill="#CCAC00"/><path class="svg__text" d="M15.60 22L13.63 13.47L15.10 13.47L16.43 19.88L18.06 13.47L19.30 13.47L20.91 19.89L22.22 13.47L23.69 13.47L21.72 22L20.31 22L18.68 15.77L17.02 22L15.60 22ZM33.34 22L27.76 22L27.76 13.47L33.30 13.47L33.30 14.66L29.25 14.66L29.25 17.02L32.75 17.02L32.75 18.19L29.25 18.19L29.25 20.82L33.34 20.82L33.34 22ZM44.29 22L42.75 22L45.98 13.47L47.31 13.47L50.53 22L48.99 22L48.29 20.01L44.98 20.01L44.29 22ZM46.64 15.28L45.40 18.82L47.87 18.82L46.64 15.28ZM55.97 22L54.49 22L54.49 13.47L57.49 13.47Q58.97 13.47 59.77 14.13Q60.57 14.79 60.57 16.05L60.57 16.05Q60.57 16.90 60.16 17.48Q59.74 18.06 59.01 18.37L59.01 18.37L60.92 21.92L60.92 22L59.33 22L57.62 18.71L55.97 18.71L55.97 22ZM55.97 14.66L55.97 17.52L57.49 17.52Q58.24 17.52 58.67 17.15Q59.09 16.77 59.09 16.11L59.09 16.11Q59.09 15.43 58.70 15.05Q58.31 14.68 57.54 14.66L57.54 14.66L55.97 14.66ZM70.54 22L64.97 22L64.97 13.47L70.50 13.47L70.50 14.66L66.45 14.66L66.45 17.02L69.95 17.02L69.95 18.19L66.45 18.19L66.45 20.82L70.54 20.82L70.54 22ZM86.67 22L80.32 22L80.32 21.04L84.73 14.66L80.35 14.66L80.35 13.47L86.53 13.47L86.53 14.41L82.11 20.82L86.67 20.82L86.67 22ZM96.51 22L90.93 22L90.93 13.47L96.47 13.47L96.47 14.66L92.41 14.66L92.41 17.02L95.91 17.02L95.91 18.19L92.41 18.19L92.41 20.82L96.51 20.82L96.51 22ZM102.18 22L100.70 22L100.70 13.47L102.18 13.47L106.00 19.54L106.00 13.47L107.47 13.47L107.47 22L105.99 22L102.18 15.95L102.18 22ZM113.77 22L112.30 22L112.30 13.47L113.77 13.47L113.77 22ZM120.27 14.66L117.63 14.66L117.63 13.47L124.40 13.47L124.40 14.66L121.74 14.66L121.74 22L120.27 22L120.27 14.66ZM130.19 18.86L127.33 13.47L128.97 13.47L130.94 17.51L132.90 13.47L134.54 13.47L131.68 18.86L131.68 22L130.19 22L130.19 18.86Z" fill="#FFFFFF"/><path class="svg__text" d="M162.89 15.48L160.31 15.48L160.31 13.60L167.83 13.60L167.83 15.48L165.26 15.48L165.26 22L162.89 22L162.89 15.48ZM174.58 22L172.20 22L172.20 13.60L176.05 13.60Q177.19 13.60 178.03 13.98Q178.86 14.35 179.32 15.06Q179.78 15.76 179.78 16.71L179.78 16.71Q179.78 17.62 179.35 18.30Q178.92 18.98 178.13 19.36L178.13 19.36L179.94 22L177.40 22L175.88 19.77L174.58 19.77L174.58 22ZM174.58 15.47L174.58 17.93L175.90 17.93Q176.63 17.93 177.00 17.61Q177.38 17.29 177.38 16.71L177.38 16.71Q177.38 16.12 177.00 15.79Q176.63 15.47 175.90 15.47L175.90 15.47L174.58 15.47ZM184.49 18.26L184.49 18.26L184.49 13.60L186.87 13.60L186.87 18.19Q186.87 20.20 188.47 20.20L188.47 20.20Q190.05 20.20 190.05 18.19L190.05 18.19L190.05 13.60L192.39 13.60L192.39 18.26Q192.39 20.13 191.35 21.15Q190.31 22.17 188.44 22.17L188.44 22.17Q186.57 22.17 185.53 21.15Q184.49 20.13 184.49 18.26ZM196.89 21.24L196.89 21.24L197.67 19.49Q198.23 19.86 198.98 20.09Q199.72 20.32 200.44 20.32L200.44 20.32Q201.81 20.32 201.81 19.64L201.81 19.64Q201.81 19.28 201.43 19.11Q201.04 18.93 200.17 18.74L200.17 18.74Q199.22 18.53 198.58 18.30Q197.95 18.06 197.49 17.55Q197.04 17.03 197.04 16.16L197.04 16.16Q197.04 15.39 197.46 14.77Q197.88 14.15 198.71 13.79Q199.55 13.43 200.75 13.43L200.75 13.43Q201.58 13.43 202.39 13.62Q203.19 13.80 203.81 14.17L203.81 14.17L203.07 15.93Q201.87 15.28 200.74 15.28L200.74 15.28Q200.03 15.28 199.71 15.49Q199.39 15.70 199.39 16.04L199.39 16.04Q199.39 16.37 199.77 16.54Q200.16 16.71 201.01 16.89L201.01 16.89Q201.97 17.10 202.60 17.33Q203.23 17.56 203.69 18.07Q204.15 18.58 204.15 19.46L204.15 19.46Q204.15 20.21 203.73 20.83Q203.31 21.44 202.47 21.80Q201.63 22.17 200.43 22.17L200.43 22.17Q199.41 22.17 198.45 21.92Q197.49 21.67 196.89 21.24ZM210.52 15.48L207.94 15.48L207.94 13.60L215.46 13.60L215.46 15.48L212.89 15.48L212.89 22L210.52 22L210.52 15.48ZM229.18 22L226.80 22L226.80 13.60L229.18 13.60L229.18 22ZM236.69 22L234.36 22L234.36 13.60L236.31 13.60L240.02 18.07L240.02 13.60L242.35 13.60L242.35 22L240.40 22L236.69 17.52L236.69 22ZM254.06 17.80L254.06 17.80Q254.06 16.55 254.66 15.55Q255.26 14.56 256.33 14.00Q257.39 13.43 258.72 13.43L258.72 13.43Q260.05 13.43 261.11 14.00Q262.18 14.56 262.78 15.55Q263.39 16.55 263.39 17.80L263.39 17.80Q263.39 19.22 262.62 20.30Q261.84 21.39 260.54 21.85L260.54 21.85Q260.78 22.12 261.01 22.23Q261.24 22.33 261.52 22.33L261.52 22.33Q262.22 22.33 262.79 21.75L262.79 21.75L263.82 22.97Q263.40 23.49 262.80 23.76Q262.19 24.03 261.47 24.03L261.47 24.03Q260.77 24.03 260.21 23.85Q259.65 23.67 259.08 23.25Q258.50 22.84 257.80 22.09L257.80 22.09Q256.71 21.91 255.86 21.31Q255.00 20.72 254.53 19.81Q254.06 18.89 254.06 17.80ZM256.45 17.80L256.45 17.80Q256.45 18.51 256.76 19.05Q257.06 19.60 257.57 19.90Q258.09 20.20 258.72 20.20L258.72 20.20Q259.36 20.20 259.88 19.90Q260.39 19.60 260.69 19.05Q260.99 18.51 260.99 17.80L260.99 17.80Q260.99 17.09 260.69 16.54Q260.39 16 259.88 15.70Q259.36 15.40 258.72 15.40L258.72 15.40Q258.08 15.40 257.57 15.70Q257.06 16 256.76 16.54Q256.45 17.09 256.45 17.80ZM268.05 18.26L268.05 18.26L268.05 13.60L270.43 13.60L270.43 18.19Q270.43 20.20 272.02 20.20L272.02 20.20Q273.60 20.20 273.60 18.19L273.60 18.19L273.60 13.60L275.95 13.60L275.95 18.26Q275.95 20.13 274.91 21.15Q273.87 22.17 272.00 22.17L272.00 22.17Q270.12 22.17 269.09 21.15Q268.05 20.13 268.05 18.26ZM282.45 22L280.03 22L283.73 13.60L286.08 13.60L289.79 22L287.33 22L286.66 20.37L283.11 20.37L282.45 22ZM284.89 15.93L283.80 18.61L285.97 18.61L284.89 15.93ZM300.33 22L293.95 22L293.95 13.60L296.33 13.60L296.33 20.11L300.33 20.11L300.33 22ZM307.13 22L304.75 22L304.75 13.60L307.13 13.60L307.13 22ZM314.10 15.48L311.51 15.48L311.51 13.60L319.04 13.60L319.04 15.48L316.47 15.48L316.47 22L314.10 22L314.10 15.48ZM325.54 18.95L322.33 13.60L324.84 13.60L326.83 16.94L328.82 13.60L331.13 13.60L327.91 18.99L327.91 22L325.54 22L325.54 18.95Z" fill="#FFFFFF" x="159.91"/></svg>